<mxfile host="65bd71144e">
    <diagram id="YDaMer9PP_c48Mob9VdM" name="Page-1">
        <mxGraphModel dx="1557" dy="619" grid="0" gridSize="10" guides="0" tooltips="1" connect="1" arrows="1" fold="1" page="1" pageScale="1" pageWidth="1700" pageHeight="1100" background="none" math="0" shadow="0">
            <root>
                <mxCell id="0"/>
                <mxCell id="1" parent="0"/>
                <mxCell id="38" style="edgeStyle=none;html=1;entryX=0;entryY=0.5;entryDx=0;entryDy=0;exitX=0.25;exitY=1;exitDx=0;exitDy=0;" edge="1" parent="1" source="2" target="33">
                    <mxGeometry relative="1" as="geometry">
                        <Array as="points">
                            <mxPoint x="1200" y="780"/>
                            <mxPoint x="1180" y="780"/>
                            <mxPoint x="1180" y="1020"/>
                        </Array>
                    </mxGeometry>
                </mxCell>
                <mxCell id="39" value="HasOne" style="edgeLabel;html=1;align=center;verticalAlign=middle;resizable=0;points=[];" vertex="1" connectable="0" parent="38">
                    <mxGeometry x="0.1703" relative="1" as="geometry">
                        <mxPoint as="offset"/>
                    </mxGeometry>
                </mxCell>
                <mxCell id="40" style="edgeStyle=none;html=1;entryX=0;entryY=0.5;entryDx=0;entryDy=0;" edge="1" parent="1" source="2" target="29">
                    <mxGeometry relative="1" as="geometry">
                        <Array as="points">
                            <mxPoint x="1120" y="720"/>
                            <mxPoint x="1120" y="760"/>
                            <mxPoint x="1120" y="1130"/>
                        </Array>
                    </mxGeometry>
                </mxCell>
                <mxCell id="41" value="HasOne" style="edgeLabel;html=1;align=center;verticalAlign=middle;resizable=0;points=[];" vertex="1" connectable="0" parent="40">
                    <mxGeometry x="0.3239" y="2" relative="1" as="geometry">
                        <mxPoint as="offset"/>
                    </mxGeometry>
                </mxCell>
                <mxCell id="54" style="edgeStyle=none;html=1;entryX=1;entryY=0.5;entryDx=0;entryDy=0;" edge="1" parent="1" source="2" target="8">
                    <mxGeometry relative="1" as="geometry">
                        <Array as="points">
                            <mxPoint x="1230" y="215"/>
                        </Array>
                    </mxGeometry>
                </mxCell>
                <mxCell id="55" value="hasMany" style="edgeLabel;html=1;align=center;verticalAlign=middle;resizable=0;points=[];" vertex="1" connectable="0" parent="54">
                    <mxGeometry x="0.1777" y="-3" relative="1" as="geometry">
                        <mxPoint as="offset"/>
                    </mxGeometry>
                </mxCell>
                <mxCell id="79" value="belongsTo" style="edgeStyle=none;html=1;entryX=1;entryY=0.25;entryDx=0;entryDy=0;exitX=0;exitY=0.25;exitDx=0;exitDy=0;" edge="1" parent="1" source="2" target="76">
                    <mxGeometry relative="1" as="geometry">
                        <Array as="points">
                            <mxPoint x="1035" y="675"/>
                            <mxPoint x="1035" y="907"/>
                        </Array>
                    </mxGeometry>
                </mxCell>
                <mxCell id="2" value="shops" style="rounded=1;whiteSpace=wrap;html=1;" vertex="1" parent="1">
                    <mxGeometry x="1170" y="660" width="120" height="60" as="geometry"/>
                </mxCell>
                <mxCell id="34" style="edgeStyle=none;html=1;" edge="1" parent="1" source="3" target="32">
                    <mxGeometry relative="1" as="geometry">
                        <Array as="points">
                            <mxPoint x="1640" y="750"/>
                        </Array>
                    </mxGeometry>
                </mxCell>
                <mxCell id="35" value="HasMany" style="edgeLabel;html=1;align=center;verticalAlign=middle;resizable=0;points=[];" vertex="1" connectable="0" parent="34">
                    <mxGeometry x="0.0229" y="-1" relative="1" as="geometry">
                        <mxPoint as="offset"/>
                    </mxGeometry>
                </mxCell>
                <mxCell id="3" value="categories" style="rounded=1;whiteSpace=wrap;html=1;" vertex="1" parent="1">
                    <mxGeometry x="1460" y="720" width="120" height="60" as="geometry"/>
                </mxCell>
                <mxCell id="36" value="BelongsTo" style="edgeStyle=none;html=1;entryX=0.5;entryY=1;entryDx=0;entryDy=0;" edge="1" parent="1" source="4" target="2">
                    <mxGeometry relative="1" as="geometry">
                        <Array as="points">
                            <mxPoint x="1230" y="880"/>
                        </Array>
                    </mxGeometry>
                </mxCell>
                <mxCell id="37" value="BelongsTo" style="edgeStyle=none;html=1;entryX=0.068;entryY=0.956;entryDx=0;entryDy=0;entryPerimeter=0;" edge="1" parent="1" source="4" target="32">
                    <mxGeometry x="0.1111" y="-10" relative="1" as="geometry">
                        <Array as="points">
                            <mxPoint x="1350" y="960"/>
                        </Array>
                        <mxPoint as="offset"/>
                    </mxGeometry>
                </mxCell>
                <mxCell id="4" value="shop_categories" style="rounded=1;whiteSpace=wrap;html=1;" vertex="1" parent="1">
                    <mxGeometry x="1290" y="850" width="120" height="60" as="geometry"/>
                </mxCell>
                <mxCell id="59" value="hasMany" style="edgeStyle=none;html=1;entryX=1;entryY=0.5;entryDx=0;entryDy=0;" edge="1" parent="1" source="5" target="23">
                    <mxGeometry x="0.2727" y="10" relative="1" as="geometry">
                        <Array as="points">
                            <mxPoint x="720" y="380"/>
                        </Array>
                        <mxPoint as="offset"/>
                    </mxGeometry>
                </mxCell>
                <mxCell id="5" value="item_quotes" style="rounded=1;whiteSpace=wrap;html=1;" vertex="1" parent="1">
                    <mxGeometry x="660" y="250" width="120" height="60" as="geometry"/>
                </mxCell>
                <mxCell id="84" value="hasMany" style="edgeStyle=none;html=1;entryX=0;entryY=0;entryDx=0;entryDy=0;" edge="1" parent="1" source="6" target="2">
                    <mxGeometry x="-0.0052" y="10" relative="1" as="geometry">
                        <Array as="points">
                            <mxPoint x="523" y="597"/>
                            <mxPoint x="923" y="595"/>
                            <mxPoint x="951" y="611"/>
                            <mxPoint x="1170" y="611"/>
                        </Array>
                        <mxPoint as="offset"/>
                    </mxGeometry>
                </mxCell>
                <mxCell id="90" value="hasOne" style="edgeStyle=none;html=1;entryX=1.072;entryY=0.479;entryDx=0;entryDy=0;entryPerimeter=0;" edge="1" parent="1" source="6" target="22">
                    <mxGeometry x="0.513" y="11" relative="1" as="geometry">
                        <Array as="points">
                            <mxPoint x="367" y="673"/>
                            <mxPoint x="329" y="762"/>
                        </Array>
                        <mxPoint as="offset"/>
                    </mxGeometry>
                </mxCell>
                <mxCell id="6" value="users" style="rounded=1;whiteSpace=wrap;html=1;" vertex="1" parent="1">
                    <mxGeometry x="400" y="600" width="120" height="60" as="geometry"/>
                </mxCell>
                <mxCell id="53" value="HasMany" style="edgeStyle=none;html=1;entryX=0.5;entryY=0;entryDx=0;entryDy=0;" edge="1" parent="1" source="8" target="10">
                    <mxGeometry relative="1" as="geometry">
                        <Array as="points">
                            <mxPoint x="950" y="213"/>
                        </Array>
                    </mxGeometry>
                </mxCell>
                <mxCell id="57" style="edgeStyle=none;html=1;entryX=0.75;entryY=0;entryDx=0;entryDy=0;exitX=0;exitY=0.25;exitDx=0;exitDy=0;" edge="1" parent="1" source="8" target="5">
                    <mxGeometry relative="1" as="geometry">
                        <Array as="points">
                            <mxPoint x="750" y="200"/>
                        </Array>
                    </mxGeometry>
                </mxCell>
                <mxCell id="58" value="hasMany" style="edgeLabel;html=1;align=center;verticalAlign=middle;resizable=0;points=[];" vertex="1" connectable="0" parent="57">
                    <mxGeometry x="-0.0867" y="-1" relative="1" as="geometry">
                        <mxPoint x="-3" y="11" as="offset"/>
                    </mxGeometry>
                </mxCell>
                <mxCell id="63" value="hasMany" style="edgeStyle=none;html=1;entryX=0.5;entryY=0;entryDx=0;entryDy=0;" edge="1" parent="1" source="8" target="9">
                    <mxGeometry x="-0.0097" y="-10" relative="1" as="geometry">
                        <Array as="points">
                            <mxPoint x="1060" y="370"/>
                            <mxPoint x="1410" y="370"/>
                        </Array>
                        <mxPoint as="offset"/>
                    </mxGeometry>
                </mxCell>
                <mxCell id="68" style="edgeStyle=none;html=1;entryX=0;entryY=0.5;entryDx=0;entryDy=0;exitX=1;exitY=1;exitDx=0;exitDy=0;" edge="1" parent="1" source="8" target="65">
                    <mxGeometry relative="1" as="geometry">
                        <Array as="points">
                            <mxPoint x="1280" y="245"/>
                            <mxPoint x="1280" y="600"/>
                        </Array>
                    </mxGeometry>
                </mxCell>
                <mxCell id="69" value="hasMany" style="edgeLabel;html=1;align=center;verticalAlign=middle;resizable=0;points=[];" vertex="1" connectable="0" parent="68">
                    <mxGeometry x="0.4122" y="2" relative="1" as="geometry">
                        <mxPoint as="offset"/>
                    </mxGeometry>
                </mxCell>
                <mxCell id="74" value="hasMany" style="edgeStyle=none;html=1;entryX=0.5;entryY=0;entryDx=0;entryDy=0;" edge="1" parent="1" source="8" target="11">
                    <mxGeometry x="0.0137" y="-10" relative="1" as="geometry">
                        <Array as="points">
                            <mxPoint x="1060" y="110"/>
                            <mxPoint x="1310" y="110"/>
                        </Array>
                        <mxPoint as="offset"/>
                    </mxGeometry>
                </mxCell>
                <mxCell id="8" value="items" style="rounded=1;whiteSpace=wrap;html=1;" vertex="1" parent="1">
                    <mxGeometry x="1000" y="185" width="120" height="60" as="geometry"/>
                </mxCell>
                <mxCell id="60" value="hasMany" style="edgeStyle=none;html=1;entryX=1;entryY=0.5;entryDx=0;entryDy=0;" edge="1" parent="1" source="9" target="24">
                    <mxGeometry relative="1" as="geometry">
                        <Array as="points">
                            <mxPoint x="1560" y="440"/>
                            <mxPoint x="1560" y="300"/>
                        </Array>
                    </mxGeometry>
                </mxCell>
                <mxCell id="9" value="item_enquiries" style="rounded=1;whiteSpace=wrap;html=1;" vertex="1" parent="1">
                    <mxGeometry x="1350" y="410" width="120" height="60" as="geometry"/>
                </mxCell>
                <mxCell id="10" value="item_images" style="rounded=1;whiteSpace=wrap;html=1;" vertex="1" parent="1">
                    <mxGeometry x="890" y="310" width="120" height="60" as="geometry"/>
                </mxCell>
                <mxCell id="42" value="HasMany" style="edgeStyle=none;html=1;entryX=0;entryY=0.5;entryDx=0;entryDy=0;" edge="1" parent="1" source="11" target="25">
                    <mxGeometry y="-10" relative="1" as="geometry">
                        <Array as="points">
                            <mxPoint x="1390" y="180"/>
                        </Array>
                        <mxPoint as="offset"/>
                    </mxGeometry>
                </mxCell>
                <mxCell id="11" value="reviews" style="rounded=1;whiteSpace=wrap;html=1;" vertex="1" parent="1">
                    <mxGeometry x="1250" y="150" width="120" height="60" as="geometry"/>
                </mxCell>
                <mxCell id="61" value="hasMany" style="edgeStyle=none;html=1;entryX=0;entryY=0.5;entryDx=0;entryDy=0;" edge="1" parent="1" source="12" target="13">
                    <mxGeometry x="-0.0667" y="-10" relative="1" as="geometry">
                        <mxPoint as="offset"/>
                    </mxGeometry>
                </mxCell>
                <mxCell id="12" value="regions" style="rounded=1;whiteSpace=wrap;html=1;" vertex="1" parent="1">
                    <mxGeometry x="480" y="480" width="120" height="60" as="geometry"/>
                </mxCell>
                <mxCell id="62" value="hasMany" style="edgeStyle=none;html=1;entryX=0.5;entryY=0;entryDx=0;entryDy=0;" edge="1" parent="1" source="13" target="14">
                    <mxGeometry x="-0.1429" y="-10" relative="1" as="geometry">
                        <Array as="points">
                            <mxPoint x="1060" y="510"/>
                        </Array>
                        <mxPoint as="offset"/>
                    </mxGeometry>
                </mxCell>
                <mxCell id="13" value="towns" style="rounded=1;whiteSpace=wrap;html=1;" vertex="1" parent="1">
                    <mxGeometry x="750" y="480" width="120" height="60" as="geometry"/>
                </mxCell>
                <mxCell id="72" value="hasMany" style="edgeStyle=none;html=1;entryX=0.25;entryY=0;entryDx=0;entryDy=0;" edge="1" parent="1" source="14" target="2">
                    <mxGeometry x="-0.4444" y="-10" relative="1" as="geometry">
                        <Array as="points">
                            <mxPoint x="1200" y="560"/>
                        </Array>
                        <mxPoint as="offset"/>
                    </mxGeometry>
                </mxCell>
                <mxCell id="73" value="hasMany" style="edgeStyle=none;html=1;entryX=0.562;entryY=-0.044;entryDx=0;entryDy=0;entryPerimeter=0;" edge="1" parent="1" source="14" target="6">
                    <mxGeometry x="-0.0131" y="10" relative="1" as="geometry">
                        <Array as="points">
                            <mxPoint x="470" y="560"/>
                        </Array>
                        <mxPoint as="offset"/>
                    </mxGeometry>
                </mxCell>
                <mxCell id="14" value="streets" style="rounded=1;whiteSpace=wrap;html=1;" vertex="1" parent="1">
                    <mxGeometry x="1000" y="530" width="120" height="60" as="geometry"/>
                </mxCell>
                <mxCell id="77" value="hasMany" style="edgeStyle=none;html=1;entryX=0;entryY=0.5;entryDx=0;entryDy=0;" edge="1" parent="1" source="15" target="76">
                    <mxGeometry relative="1" as="geometry"/>
                </mxCell>
                <mxCell id="15" value="subscriptions" style="rounded=1;whiteSpace=wrap;html=1;" vertex="1" parent="1">
                    <mxGeometry x="210" y="890" width="120" height="60" as="geometry"/>
                </mxCell>
                <mxCell id="43" value="BelongsTo" style="edgeStyle=none;html=1;entryX=0;entryY=0.5;entryDx=0;entryDy=0;" edge="1" parent="1" source="17" target="2">
                    <mxGeometry relative="1" as="geometry">
                        <Array as="points">
                            <mxPoint x="1080" y="1020"/>
                            <mxPoint x="1080" y="700"/>
                        </Array>
                    </mxGeometry>
                </mxCell>
                <mxCell id="44" value="belongsTo" style="edgeStyle=none;html=1;entryX=0.25;entryY=1;entryDx=0;entryDy=0;" edge="1" parent="1" source="17" target="6">
                    <mxGeometry x="0.0286" y="10" relative="1" as="geometry">
                        <Array as="points">
                            <mxPoint x="800" y="840"/>
                            <mxPoint x="430" y="840"/>
                        </Array>
                        <mxPoint as="offset"/>
                    </mxGeometry>
                </mxCell>
                <mxCell id="17" value="shop_subscribers" style="rounded=1;whiteSpace=wrap;html=1;" vertex="1" parent="1">
                    <mxGeometry x="740" y="990" width="120" height="60" as="geometry"/>
                </mxCell>
                <mxCell id="86" style="edgeStyle=none;html=1;entryX=0.5;entryY=1;entryDx=0;entryDy=0;" edge="1" parent="1" source="18" target="85">
                    <mxGeometry relative="1" as="geometry">
                        <Array as="points">
                            <mxPoint x="956" y="792"/>
                        </Array>
                    </mxGeometry>
                </mxCell>
                <mxCell id="88" value="hasMany" style="edgeLabel;html=1;align=center;verticalAlign=middle;resizable=0;points=[];" vertex="1" connectable="0" parent="86">
                    <mxGeometry x="-0.3933" relative="1" as="geometry">
                        <mxPoint y="10" as="offset"/>
                    </mxGeometry>
                </mxCell>
                <mxCell id="18" value="roles" style="rounded=1;whiteSpace=wrap;html=1;" vertex="1" parent="1">
                    <mxGeometry x="690" y="760" width="120" height="60" as="geometry"/>
                </mxCell>
                <mxCell id="87" style="edgeStyle=none;html=1;entryX=0;entryY=0.5;entryDx=0;entryDy=0;" edge="1" parent="1" source="19" target="85">
                    <mxGeometry relative="1" as="geometry">
                        <Array as="points">
                            <mxPoint x="800" y="730"/>
                        </Array>
                    </mxGeometry>
                </mxCell>
                <mxCell id="89" value="hasMany" style="edgeLabel;html=1;align=center;verticalAlign=middle;resizable=0;points=[];" vertex="1" connectable="0" parent="87">
                    <mxGeometry x="-0.4909" y="1" relative="1" as="geometry">
                        <mxPoint x="34" y="11" as="offset"/>
                    </mxGeometry>
                </mxCell>
                <mxCell id="19" value="permissions" style="rounded=1;whiteSpace=wrap;html=1;" vertex="1" parent="1">
                    <mxGeometry x="740" y="610" width="120" height="60" as="geometry"/>
                </mxCell>
                <mxCell id="81" style="edgeStyle=none;html=1;entryX=0;entryY=0.5;entryDx=0;entryDy=0;" edge="1" parent="1" source="21" target="46">
                    <mxGeometry relative="1" as="geometry">
                        <Array as="points">
                            <mxPoint x="400" y="788"/>
                        </Array>
                    </mxGeometry>
                </mxCell>
                <mxCell id="91" value="hasMany" style="edgeStyle=none;html=1;entryX=0;entryY=0.5;entryDx=0;entryDy=0;exitX=0.25;exitY=0;exitDx=0;exitDy=0;" edge="1" parent="1" source="21" target="50">
                    <mxGeometry relative="1" as="geometry">
                        <Array as="points">
                            <mxPoint x="370" y="703"/>
                        </Array>
                    </mxGeometry>
                </mxCell>
                <mxCell id="21" value="admins" style="rounded=1;whiteSpace=wrap;html=1;" vertex="1" parent="1">
                    <mxGeometry x="340" y="1009" width="120" height="60" as="geometry"/>
                </mxCell>
                <mxCell id="22" value="user_profiles" style="rounded=1;whiteSpace=wrap;html=1;" vertex="1" parent="1">
                    <mxGeometry x="106" y="733" width="120" height="60" as="geometry"/>
                </mxCell>
                <mxCell id="23" value="item_quote_images" style="rounded=1;whiteSpace=wrap;html=1;" vertex="1" parent="1">
                    <mxGeometry x="530" y="350" width="150" height="60" as="geometry"/>
                </mxCell>
                <mxCell id="24" value="item_enquiry_images" style="rounded=1;whiteSpace=wrap;html=1;" vertex="1" parent="1">
                    <mxGeometry x="1320" y="270" width="150" height="60" as="geometry"/>
                </mxCell>
                <mxCell id="25" value="review_images" style="rounded=1;whiteSpace=wrap;html=1;" vertex="1" parent="1">
                    <mxGeometry x="1510" y="150" width="120" height="60" as="geometry"/>
                </mxCell>
                <mxCell id="27" value="sliders" style="rounded=1;whiteSpace=wrap;html=1;" vertex="1" parent="1">
                    <mxGeometry x="10" y="1170" width="120" height="60" as="geometry"/>
                </mxCell>
                <mxCell id="28" value="site_pages" style="rounded=1;whiteSpace=wrap;html=1;" vertex="1" parent="1">
                    <mxGeometry x="160" y="1170" width="120" height="60" as="geometry"/>
                </mxCell>
                <mxCell id="29" value="shop_registration_info" style="rounded=1;whiteSpace=wrap;html=1;" vertex="1" parent="1">
                    <mxGeometry x="1180" y="1100" width="120" height="60" as="geometry"/>
                </mxCell>
                <mxCell id="80" style="edgeStyle=none;html=1;" edge="1" parent="1" source="31" target="12">
                    <mxGeometry relative="1" as="geometry"/>
                </mxCell>
                <mxCell id="31" value="countries" style="rounded=1;whiteSpace=wrap;html=1;" vertex="1" parent="1">
                    <mxGeometry x="179" y="480" width="120" height="60" as="geometry"/>
                </mxCell>
                <mxCell id="67" value="hasMany" style="edgeStyle=none;html=1;entryX=0.25;entryY=1;entryDx=0;entryDy=0;" edge="1" parent="1" source="32" target="65">
                    <mxGeometry x="-0.6889" y="-10" relative="1" as="geometry">
                        <Array as="points">
                            <mxPoint x="1430" y="930"/>
                        </Array>
                        <mxPoint as="offset"/>
                    </mxGeometry>
                </mxCell>
                <mxCell id="32" value="sub_categories" style="rounded=1;whiteSpace=wrap;html=1;" vertex="1" parent="1">
                    <mxGeometry x="1580" y="900" width="120" height="60" as="geometry"/>
                </mxCell>
                <mxCell id="33" value="shop_contact_info" style="rounded=1;whiteSpace=wrap;html=1;" vertex="1" parent="1">
                    <mxGeometry x="1250" y="990" width="120" height="60" as="geometry"/>
                </mxCell>
                <mxCell id="47" style="edgeStyle=none;html=1;entryX=0.5;entryY=1;entryDx=0;entryDy=0;exitX=0;exitY=0.5;exitDx=0;exitDy=0;" edge="1" parent="1" source="46" target="6">
                    <mxGeometry relative="1" as="geometry"/>
                </mxCell>
                <mxCell id="48" value="belongsTo" style="edgeLabel;html=1;align=center;verticalAlign=middle;resizable=0;points=[];" vertex="1" connectable="0" parent="47">
                    <mxGeometry x="0.1877" y="-2" relative="1" as="geometry">
                        <mxPoint as="offset"/>
                    </mxGeometry>
                </mxCell>
                <mxCell id="49" value="BelongsTo" style="edgeStyle=none;html=1;entryX=0;entryY=0.5;entryDx=0;entryDy=0;" edge="1" parent="1" source="46" target="18">
                    <mxGeometry x="-0.0909" y="10" relative="1" as="geometry">
                        <mxPoint as="offset"/>
                    </mxGeometry>
                </mxCell>
                <mxCell id="46" value="user_roles" style="rounded=1;whiteSpace=wrap;html=1;" vertex="1" parent="1">
                    <mxGeometry x="460" y="760" width="120" height="60" as="geometry"/>
                </mxCell>
                <mxCell id="51" value="BelongsTo" style="edgeStyle=none;html=1;entryX=1;entryY=0.5;entryDx=0;entryDy=0;" edge="1" parent="1" source="50" target="6">
                    <mxGeometry x="0.1667" y="-10" relative="1" as="geometry">
                        <Array as="points">
                            <mxPoint x="580" y="630"/>
                        </Array>
                        <mxPoint as="offset"/>
                    </mxGeometry>
                </mxCell>
                <mxCell id="52" value="BelongsTo" style="edgeStyle=none;html=1;entryX=0.008;entryY=0.389;entryDx=0;entryDy=0;entryPerimeter=0;" edge="1" parent="1" source="50" target="19">
                    <mxGeometry x="0.0832" y="13" relative="1" as="geometry">
                        <Array as="points">
                            <mxPoint x="630" y="633"/>
                        </Array>
                        <mxPoint as="offset"/>
                    </mxGeometry>
                </mxCell>
                <mxCell id="50" value="user_permissions" style="rounded=1;whiteSpace=wrap;html=1;" vertex="1" parent="1">
                    <mxGeometry x="545" y="673" width="120" height="60" as="geometry"/>
                </mxCell>
                <mxCell id="65" value="item_categories" style="rounded=1;whiteSpace=wrap;html=1;" vertex="1" parent="1">
                    <mxGeometry x="1400" y="570" width="120" height="60" as="geometry"/>
                </mxCell>
                <mxCell id="76" value="shop_subscriptions" style="rounded=1;whiteSpace=wrap;html=1;" vertex="1" parent="1">
                    <mxGeometry x="620" y="890" width="120" height="60" as="geometry"/>
                </mxCell>
                <mxCell id="82" style="edgeStyle=none;html=1;entryX=0;entryY=0.5;entryDx=0;entryDy=0;" edge="1" parent="1" target="6">
                    <mxGeometry relative="1" as="geometry">
                        <mxPoint x="437" y="597" as="sourcePoint"/>
                        <Array as="points">
                            <mxPoint x="439" y="529"/>
                            <mxPoint x="343" y="529"/>
                            <mxPoint x="343" y="630"/>
                        </Array>
                    </mxGeometry>
                </mxCell>
                <mxCell id="83" value="hasMany (users to managerss)" style="edgeLabel;html=1;align=center;verticalAlign=middle;resizable=0;points=[];" vertex="1" connectable="0" parent="82">
                    <mxGeometry x="0.4352" y="-1" relative="1" as="geometry">
                        <mxPoint x="-25" y="45" as="offset"/>
                    </mxGeometry>
                </mxCell>
                <mxCell id="85" value="role_permissions" style="rounded=1;whiteSpace=wrap;html=1;" vertex="1" parent="1">
                    <mxGeometry x="894" y="700" width="120" height="60" as="geometry"/>
                </mxCell>
                <mxCell id="92" value="hasMany (branches)" style="edgeStyle=none;html=1;exitX=0.75;exitY=0;exitDx=0;exitDy=0;entryX=1;entryY=0.75;entryDx=0;entryDy=0;" edge="1" parent="1" source="2" target="2">
                    <mxGeometry x="0.0609" y="-13" relative="1" as="geometry">
                        <Array as="points">
                            <mxPoint x="1260" y="620"/>
                            <mxPoint x="1337" y="620"/>
                            <mxPoint x="1337" y="707"/>
                        </Array>
                        <mxPoint as="offset"/>
                    </mxGeometry>
                </mxCell>
            </root>
        </mxGraphModel>
    </diagram>
</mxfile>